<?xml version="1.0" standalone="no"?>
<!DOCTYPE svg PUBLIC "-//W3C//DTD SVG 20010904//EN"
 "http://www.w3.org/TR/2001/REC-SVG-20010904/DTD/svg10.dtd">
<svg version="1.0" xmlns="http://www.w3.org/2000/svg"
 width="512.000000pt" height="512.000000pt" viewBox="0 0 512.000000 512.000000"
 preserveAspectRatio="xMidYMid meet">

<g transform="translate(0.000000,512.000000) scale(0.100000,-0.100000)"
fill="#000000" stroke="none">
<path d="M892 4629 c-200 -26 -375 -205 -402 -410 -13 -98 -12 -995 0 -1084
28 -194 174 -356 361 -400 53 -12 155 -15 585 -15 313 0 543 4 575 10 184 35
345 196 379 379 6 31 10 270 10 575 0 430 -3 532 -15 585 -44 187 -206 333
-400 361 -83 11 -1001 11 -1093 -1z m1115 -341 c75 -49 74 -42 71 -630 -3
-504 -4 -517 -24 -544 -11 -15 -33 -37 -48 -48 -27 -20 -40 -21 -544 -24 -588
-3 -581 -4 -630 71 l-27 41 -3 498 c-2 335 1 511 8 539 6 22 23 53 38 70 53
58 58 59 613 56 l505 -2 41 -27z"/>
<path d="M3079 4622 c-181 -48 -321 -207 -349 -397 -12 -89 -13 -986 0 -1084
28 -211 200 -383 411 -411 98 -13 995 -12 1084 0 194 28 356 174 400 361 22
94 22 1097 0 1182 -45 173 -178 307 -350 352 -50 13 -145 15 -595 14 -472 0
-543 -2 -601 -17z m1167 -328 c15 -11 37 -33 48 -48 20 -27 21 -40 24 -544 3
-588 4 -581 -71 -630 l-41 -27 -498 -3 c-346 -2 -511 1 -540 9 -53 14 -103 64
-117 117 -8 29 -11 194 -9 539 l3 498 24 39 c15 23 40 46 65 57 39 18 71 19
563 16 509 -2 522 -2 549 -23z"/>
<path d="M892 2390 c-201 -28 -375 -206 -402 -411 -13 -98 -12 -995 0 -1084
28 -194 174 -356 361 -400 53 -12 155 -15 585 -15 313 0 543 4 575 10 184 35
345 196 379 379 6 31 10 270 10 573 0 429 -3 531 -15 586 -36 158 -153 285
-316 344 -64 23 -68 23 -589 24 -289 1 -553 -2 -588 -6z m1115 -342 c75 -49
74 -42 71 -630 -3 -504 -4 -517 -24 -544 -11 -15 -33 -37 -48 -48 -27 -20 -40
-21 -544 -24 -588 -3 -581 -4 -630 71 l-27 41 -3 498 c-2 335 1 511 8 539 6
22 23 53 38 70 53 58 58 59 613 56 l505 -2 41 -27z"/>
<path d="M3575 2390 c-251 -27 -487 -157 -647 -359 -204 -257 -261 -611 -148
-924 91 -251 316 -476 567 -567 249 -90 512 -76 749 40 162 79 286 187 381
333 355 544 82 1267 -546 1448 -56 16 -242 42 -275 38 -6 -1 -43 -5 -81 -9z
m265 -336 c217 -55 399 -240 456 -464 22 -84 21 -226 -1 -309 -61 -235 -244
-411 -482 -465 -447 -100 -857 310 -757 757 81 357 429 571 784 481z"/>
</g>
</svg>
